<?xml version="1.0" encoding="UTF-8"?>
<svg id="Top" xmlns="http://www.w3.org/2000/svg" version="1.1" viewBox="0 0 228.34 209.89">
  <!-- Generator: Adobe Illustrator 30.2.1, SVG Export Plug-In . SVG Version: 2.1.1 Build 1)  -->
  <defs>
    <style>
      .st0 {
        fill: #1a2138;
      }
    </style>
  </defs>
  <g>
    <path class="st0" d="M87.61,129.32c1-1,2.21-1.82,3.6-2.39s2.84-.82,4.35-.82c1.26,0,2.39.19,3.47.5,1.07.37,2.08.82,2.97,1.45s1.76,1.39,2.58,2.21l5.99-6.87c-1.13-1.32-2.52-2.52-4.16-3.53-1.58-1-3.34-1.71-5.16-2.21s-3.71-.76-5.68-.76c-3.08,0-5.92.5-8.5,1.58s-4.85,2.52-6.74,4.35c-1.89,1.89-3.4,4.1-4.47,6.61-1.07,2.52-1.64,5.29-1.64,8.32s.5,5.92,1.51,8.44c1,2.58,2.45,4.79,4.35,6.68s4.1,3.34,6.68,4.35,5.36,1.51,8.44,1.51c1.95,0,3.9-.26,5.86-.69,1.95-.5,3.71-1.13,5.29-2.02,1.58-.82,2.9-1.82,3.84-2.9l-4.73-7.5c-.76.76-1.58,1.45-2.52,2.08-.95.57-1.95,1.07-3.08,1.39-1.13.37-2.27.5-3.53.5-1.82,0-3.47-.26-4.92-.82-1.51-.57-2.77-1.32-3.78-2.39-1.07-1.07-1.82-2.27-2.45-3.71-.57-1.45-.89-3.03-.89-4.85s.32-3.47.89-4.92c.63-1.32,1.45-2.52,2.45-3.6h-.01Z"/>
    <path class="st0" d="M157.23,117.79h-8.44l-11.79,18.9-11.6-18.9h-8.82v40.45h9.52v-12.6c0-3.71-.06-7-.26-9.71-.06-.63-.13-1.32-.19-1.95l9.13,14.43h3.84l9.45-14.62c-.06.82-.19,1.64-.19,2.52-.19,2.77-.26,5.92-.26,9.39v12.6h9.52v-40.52h.07Z"/>
    <polygon class="st0" points="189.81 126.11 189.81 117.79 166.25 117.79 166.25 126.11 173.05 126.11 173.05 150.05 166.25 150.05 166.25 158.31 189.81 158.31 189.81 150.05 182.88 150.05 182.88 126.11 189.81 126.11"/>
    <path class="st0" d="M228.19,124.28c-1.2-2.02-2.77-3.6-4.73-4.73-2.02-1.13-4.22-1.76-6.81-1.76h-17.45v40.45h9.76v-13.55h7.63c2.52,0,4.79-.57,6.81-1.76,2.02-1.2,3.6-2.84,4.73-4.92,1.2-2.08,1.76-4.42,1.76-7.05.06-2.39-.57-4.66-1.71-6.68h0ZM219.24,133.8c-.44.76-1,1.32-1.71,1.76-.69.44-1.45.63-2.34.63h-6.42v-9.64h6.49c.82,0,1.64.19,2.34.57.69.37,1.26.95,1.71,1.64s.63,1.51.63,2.52c-.06.95-.26,1.76-.69,2.52h-.01Z"/>
  </g>
  <g>
    <path class="st0" d="M72.14,185.39c-.13,0-.26-.01-.39-.06-36.07-9.93-61.26-43.03-61.26-80.49,0-46.03,37.45-83.48,83.48-83.48s83.48,37.45,83.48,83.48c0,.81-.65,1.46-1.46,1.46s-1.46-.65-1.46-1.46c0-44.42-36.14-80.55-80.55-80.55S13.41,60.43,13.41,104.84c0,36.14,24.31,68.08,59.11,77.66.78.21,1.24,1.02,1.02,1.8-.18.65-.77,1.07-1.41,1.07h.01Z"/>
    <path class="st0" d="M45.17,157.8c-.36,0-.72-.13-1-.4-14.58-13.82-22.6-32.48-22.6-52.56,0-39.92,32.48-72.41,72.41-72.41s72.41,32.48,72.41,72.41c0,.81-.65,1.46-1.46,1.46s-1.46-.65-1.46-1.46c0-38.31-31.16-69.47-69.47-69.47S24.51,66.53,24.51,104.84c0,19.26,7.7,37.18,21.69,50.44.58.56.61,1.48.06,2.07-.29.3-.68.46-1.06.46h-.02Z"/>
    <path class="st0" d="M36.13,120.15c-.67,0-1.26-.46-1.42-1.12-1.1-4.61-1.66-9.39-1.66-14.19,0-33.59,27.33-60.91,60.91-60.91s60.91,27.33,60.91,60.91c0,.81-.65,1.46-1.46,1.46s-1.46-.65-1.46-1.46c0-31.98-26.01-57.99-57.99-57.99s-57.99,26.01-57.99,57.99c0,4.57.54,9.11,1.58,13.51.19.78-.29,1.58-1.09,1.76-.12.02-.23.04-.34.04h.01Z"/>
    <path class="st0" d="M141.46,106.3c-.81,0-1.46-.65-1.46-1.46,0-25.39-20.65-46.04-46.04-46.04-9.37,0-18.37,2.79-26.06,8.08-5.14,3.54-9.45,7.99-12.8,13.25-.43.68-1.34.89-2.02.44-.68-.43-.89-1.34-.44-2.02,3.56-5.59,8.14-10.33,13.61-14.09,8.18-5.62,17.75-8.6,27.72-8.6,27,0,48.98,21.97,48.98,48.98,0,.81-.65,1.46-1.46,1.46h-.01Z"/>
    <path class="st0" d="M129.4,106.3c-.81,0-1.46-.65-1.46-1.46,0-18.74-15.24-33.98-33.98-33.98-4.11,0-8.13.72-11.94,2.16-.76.28-1.6-.09-1.88-.85s.11-1.6.85-1.88c4.15-1.55,8.5-2.35,12.97-2.35,20.35,0,36.9,16.55,36.9,36.9,0,.81-.65,1.46-1.46,1.46Z"/>
    <path class="st0" d="M117.6,106.3c-.81,0-1.46-.65-1.46-1.46,0-6.79-3.05-13.11-8.35-17.35-.63-.5-.74-1.42-.23-2.06s1.42-.74,2.06-.23c6,4.8,9.45,11.95,9.45,19.62,0,.81-.65,1.46-1.46,1.46h0Z"/>
    <path class="st0" d="M188.17,106.43h-70.57c-.81,0-1.46-.65-1.46-1.46s.65-1.46,1.46-1.46h70.57c.81,0,1.46.65,1.46,1.46s-.65,1.46-1.46,1.46Z"/>
    <path class="st0" d="M94.21,200.71C41.4,200.71-1.56,157.75-1.56,104.95S41.4,9.18,94.21,9.18s95.77,42.96,95.77,95.77c0,.81-.65,1.46-1.46,1.46s-1.46-.65-1.46-1.46c0-51.19-41.65-92.83-92.83-92.83S1.37,53.75,1.37,104.95s41.65,92.83,92.83,92.83c3.17,0,6.37-.16,9.5-.48.82-.07,1.52.5,1.6,1.31s-.5,1.52-1.31,1.6c-3.24.33-6.53.49-9.79.49h0Z"/>
  </g>
</svg>